<svg xmlns="http://www.w3.org/2000/svg" xmlns:svg="http://www.w3.org/2000/svg" id="svg10" width="525.151" height="514.766" version="1.1" viewBox="0 0 525.151 514.766"><metadata id="metadata16"/><g id="g18" transform="translate(-0.79440477,-0.32115045)"><path style="fill:#000;stroke-width:3.1698" id="path22" d="M 217.47182,507.75921 C 192.0186,502.69847 166.27043,494.0411 146.16182,483.78244 121.65956,471.28232 98.851203,454.67978 96.630566,447.72785 94.796328,441.98566 113.01405,422.7519 219.35866,318.1548 300.96228,237.8922 346.44179,195.35077 350.59195,195.39952 c 3.84133,0.045 27.63036,20.55744 60.19681,51.90525 52.46383,50.50065 53.76332,52.06454 50.64052,60.9441 -6.37335,18.12263 -15.8099,13.21692 -65.65769,-34.13314 l -45.52794,-43.24661 -109.01284,106.79059 -109.01285,106.7906 26.77789,13.22204 c 36.50058,18.02278 63.32109,24.09771 106.02304,24.01453 41.0545,-0.0799 64.78806,-5.5326 101.43372,-23.30373 C 444.21288,420.67371 492.48807,343.69432 492.65839,257.13607 492.82797,170.91329 444.36408,93.628948 366.45261,55.878515 329.78987,38.114301 306.06116,32.665244 265.01889,32.58527 222.95594,32.50353 195.80023,38.53173 160.41536,55.80653 83.742935,93.237857 34.878944,169.9556 34.425703,253.61375 c -0.08621,15.88443 1.623194,37.2796 3.798374,47.54487 l 3.954843,18.6641 46.439018,-46.08644 c 25.541422,-25.34756 49.719522,-47.05939 53.729062,-48.24857 6.15989,-1.82688 11.93415,2.39218 37.24519,27.21383 16.47531,16.15678 29.95513,31.74493 29.95513,34.64033 0,6.02871 -9.63997,15.75636 -15.61435,15.75636 -2.21148,0 -13.62468,-9.27168 -25.36263,-20.60373 -11.73796,-11.33205 -22.67123,-20.60372 -24.29613,-20.60372 -1.6249,0 -25.04649,22.15529 -52.047995,49.23399 C 51.949133,351.51702 41.709501,360.19813 35.208111,359.46428 10.808319,356.71017 -4.1000312,256.18434 11.100667,196.90981 23.903191,146.98688 56.908386,94.788645 95.936447,62.740665 121.56501,41.695729 164.42241,19.484754 196.00065,10.882101 c 34.95806,-9.5233934 99.90861,-9.5233934 134.86666,0 52.35011,14.261386 109.23033,52.00612 139.94406,92.864369 81.28242,108.12953 64.80996,259.14992 -37.7272,345.88498 -25.64828,21.69557 -75.46473,47.36017 -106.25411,54.74026 -29.6054,7.09634 -82.46863,8.73383 -109.35824,3.3875 z"/></g></svg>